# xmcd CD database file
#
# Track frame offsets:
#	150
#	26382
#	39135
#	60230
#	77052
#	96700
#	117080
#	138447
#	152075
#	169035
#	186002
#
# Disc length: 2716 seconds
#
# Revision: 1
# Processed by: cddbd v1.5.2PL0 Copyright (c) Steve Scherf et al.
# Submitted via: CDex 1.51
#
DISCID=800a9a0b
DTITLE=LOS GALANES - DE LO GALAN A LO POPULAR
DYEAR=2003
DGENRE=Pop-Folk
TTITLE0=CHAN CHAN
TTITLE1=SON DE LA LOMA
TTITLE2=BESAME MUCHO
TTITLE3=CACHITA
TTITLE4=EL BODEGUERO
TTITLE5=GUANTANAMERA
TTITLE6=YOLANDA
TTITLE7=MERECUMBE
TTITLE8=HASTA SIEMPRE COMANDANTE
TTITLE9=LA MUJER DE ANTONIO
TTITLE10=MOLIENDO CAFE'
EXTD=YEAR: 2003
EXTT0=CHAN CHAN
EXTT1=SON DE LA LOMA
EXTT2=BESAME MUCHO
EXTT3=CACHITA
EXTT4=EL BODEGUERO
EXTT5=GUANTANAMERA
EXTT6=YOLANDA
EXTT7=MERECUMBE
EXTT8=HASTA SIEMPRE COMANDANTE
EXTT9=LA MUJER DE ANTONIO
EXTT10=
PLAYORDER=
